<?xml version="1.0" encoding="UTF-8"?>
<svg width="24px" height="24px" viewBox="0 0 24 24" version="1.1" xmlns="http://www.w3.org/2000/svg" xmlns:xlink="http://www.w3.org/1999/xlink">
    <!-- Generator: Sketch 48.2 (47327) - http://www.bohemiancoding.com/sketch -->
    <title>xxxhdpi0: Icons / Category / Esportes e lazer</title>
    <desc>Created with Sketch.</desc>
    <defs>
        <path d="M7.63031269,8.71996049 C8.12175728,8.0332371 8.66279902,7.38295943 9.24893287,6.77467113 C7.88629716,6.05597724 6.44707726,5.46632706 4.94813467,5.02118821 C4.6834184,4.9425758 4.53255143,4.66425291 4.61116384,4.39953665 C4.68977625,4.13482039 4.96809913,3.98395341 5.2328154,4.06256582 C6.89956973,4.55753949 8.49535455,5.22386252 9.99887419,6.04199128 C10.3898059,5.6824785 10.797778,5.34042113 11.2216757,5.01719116 C9.71736527,3.87633494 9.19013861,3.01252511 9.42725344,1.57751085 C9.47227146,1.3050627 9.72962863,1.12069416 10.0020768,1.16571218 C10.2745249,1.21073019 10.4588935,1.46808736 10.4138754,1.7405355 C10.2441639,2.76762619 10.6572621,3.37619823 12.0758487,4.40597138 C13.4940828,3.45491697 15.0671329,2.70486282 16.7587366,2.2004313 C17.023364,2.12152016 17.301857,2.27207291 17.3807681,2.53670027 C17.4596793,2.80132764 17.3091265,3.07982063 17.0444992,3.15873177 C15.5847198,3.5940339 14.2186121,4.22352246 12.9724429,5.01488085 C13.9892051,5.64724333 14.7608725,5.89272182 15.7413238,5.99977524 C15.8795538,6.01486829 16.0056955,6.02652472 16.2382973,6.04649136 C17.4056172,6.14669462 17.9708016,6.2350581 18.8719989,6.52162351 C21.448112,7.34077045 22.8109722,9.39996044 22.9371279,13.1371669 C22.9464443,13.4131521 22.7302665,13.6444347 22.4542813,13.653751 C22.1782961,13.6630674 21.9470135,13.4468896 21.9376972,13.1709044 C21.825044,9.83369136 20.7154235,8.15712956 18.5689696,7.47460473 C17.7553851,7.21589872 17.2518349,7.13717141 16.1527714,7.0428273 C15.9128666,7.02223377 15.7808557,7.01003498 15.632781,6.99386702 C14.3876679,6.85791574 13.4063623,6.51480681 12.0767727,5.62646296 C11.6737387,5.9218071 11.2853074,6.23493713 10.9125104,6.56458385 C15.3332423,9.21926828 18.8737622,13.2201747 20.9486427,18.0300398 C21.0580219,18.2835961 20.9411432,18.5778135 20.6875869,18.6871926 C20.4340305,18.7965718 20.1398132,18.6796931 20.030434,18.4261368 C18.0013515,13.7224378 14.5110592,9.82431727 10.1553409,7.27830705 C9.51850305,7.91805348 8.93566167,8.60940928 8.41300571,9.34476011 C9.88800673,10.6314809 10.6868344,11.8598212 11.0946992,13.2913643 C11.262955,13.8819165 11.3474465,14.3792469 11.4761447,15.3813011 C11.8524843,18.3115093 12.3272242,19.7288959 14.1498153,22.0445051 C14.3206064,22.2614959 14.2831541,22.5758552 14.0661634,22.7466464 C13.8491726,22.9174375 13.5348132,22.8799852 13.3640221,22.6629944 C11.4103963,20.1809052 10.881593,18.6021065 10.4842917,15.5086891 C10.361731,14.554422 10.2833998,14.0933515 10.1329719,13.5653726 C9.78830729,12.3556526 9.12207644,11.312756 7.85404019,10.1848702 C6.28852458,12.7027904 5.39632626,15.6641576 5.39632626,18.7996776 C5.39632626,19.0886241 5.40376489,19.3756312 5.41863842,19.6607072 C5.43302628,19.9364745 5.22113638,20.1716917 4.94536908,20.1860796 C4.66960179,20.2004674 4.43438456,19.9885775 4.4199967,19.7128102 C4.40421516,19.4103307 4.39632626,19.1059505 4.39632626,18.7996776 C4.39632626,15.4271585 5.3688452,12.2445512 7.07217579,9.54928682 C5.44277653,8.3998667 3.86183196,8.63974655 1.95414345,11.2620856 C1.79169464,11.4853903 1.47897962,11.5347238 1.2556749,11.3722749 C1.03237019,11.2098261 0.983036725,10.8971111 1.14548553,10.6738064 C3.39570683,7.58061636 5.57958389,7.28890782 7.63031269,8.71996049 Z M12,1 C18.0750597,1 23,5.92494028 23,12 C23,18.0750597 18.0750597,23 12,23 C5.92494028,23 1,18.0750597 1,12 C1,5.92494028 5.92494028,1 12,1 Z M12,2 C6.47722503,2 2,6.47722503 2,12 C2,17.522775 6.47722503,22 12,22 C17.522775,22 22,17.522775 22,12 C22,6.47722503 17.522775,2 12,2 Z" id="path-1"></path>
    </defs>
    <g id="Symbols" stroke="none" stroke-width="1" fill="none" fill-rule="evenodd">
        <g id="0:-Icons-/-Category-/-Esportes-e-lazer">
            <path d="M0,0 L24,0 L24,24 L0,24 L0,0 Z M0,0 L24,0 L24,24 L0,24 L0,0 Z M0,0 L24,0 L24,24 L0,24 L0,0 Z M0,0 L24,0 L24,24 L0,24 L0,0 Z" id="Container"></path>
            <mask id="mask-2" fill="white">
                <use xlink:href="#path-1"></use>
            </mask>
            <use id="Mask" fill="#4A4A4A" fill-rule="nonzero" xlink:href="#path-1"></use>
            <g id="0:-Fundamentals-/-Color-/-Primary-/-Black" mask="url(#mask-2)" fill="#4A4A4A">
                <rect id="Mixin/Fill/Black" x="0" y="0" width="24" height="24"></rect>
            </g>
        </g>
    </g>
</svg>