<?xml version="1.0" encoding="UTF-8"?>
<svg width="24px" height="24px" viewBox="0 0 24 24" version="1.1" xmlns="http://www.w3.org/2000/svg" xmlns:xlink="http://www.w3.org/1999/xlink">
    <!-- Generator: Sketch 48.2 (47327) - http://www.bohemiancoding.com/sketch -->
    <title>xxxhdpi0: Icons / Category / Para a sua casa</title>
    <desc>Created with Sketch.</desc>
    <defs>
        <path d="M2.11865857,16.3030157 L22.0441953,16.3030157 L20.4871568,10.9041687 C16.8125328,10.1902378 8.85622803,10.1672904 3.70398208,10.9221666 L2.11865857,16.3030157 Z M2.93929107,4.07374571 C2.90851958,4.00886844 2.89130435,3.93631135 2.89130435,3.85973342 C2.89130435,2.86605059 3.70398617,2.05800803 4.71041414,2.00298795 C4.72846817,2.0010134 4.74681115,2 4.76539083,2 L19.3932311,2 C19.4693328,2 19.5414636,2.01700179 19.6060322,2.04741423 C20.4577797,2.23731525 21.1025742,2.97553872 21.1025742,3.85973342 C21.1025742,3.93378131 21.0864777,4.00406967 21.0575929,4.06729032 C21.0903178,4.13379541 21.1086987,4.20863042 21.1086986,4.2877585 L21.1086928,10.0288091 C21.2314292,10.0905924 21.3252096,10.2013149 21.3643078,10.3368834 L23.1891943,16.6644617 C23.2239063,16.7848215 23.2115408,16.9050678 23.1648698,17.0082244 C23.1727871,17.0435579 23.1769644,17.0803044 23.1769644,17.1180265 L23.1769644,21.607645 C23.1769644,21.8837874 22.9531068,22.107645 22.6769644,22.107645 L19.532785,22.107645 C19.2566426,22.107645 19.032785,21.8837874 19.032785,21.607645 L19.032785,19.8330953 L5.12621199,19.8330953 L5.12621199,21.607645 C5.12621199,21.8837874 4.90235436,22.107645 4.62621199,22.107645 L1.48140756,22.107645 C1.20526519,22.107645 0.981407561,21.8837874 0.981407561,21.607645 L0.981407561,17.1180265 C0.981407561,17.0800405 0.985643527,17.0430439 0.993668856,17.0074833 C0.946898596,16.9036653 0.93485226,16.7826351 0.970480105,16.6617088 L2.83473917,10.3341304 C2.85026206,10.2814434 2.87401908,10.2326404 2.90445843,10.1890816 C2.89585479,10.1523337 2.89130435,10.1140257 2.89130435,10.074655 L2.89130435,4.287758 C2.89130435,4.21118007 2.90851958,4.13862298 2.93929107,4.07374571 Z M3.84331763,4.07374571 C3.87408911,4.13862298 3.89130435,4.21118007 3.89130435,4.287758 L3.89130435,9.88561188 C4.16874766,9.84753169 4.45327848,9.81156433 4.74392357,9.77769773 L4.74392357,8.96932136 C4.74392357,7.86321707 5.68423963,6.96802339 6.82070051,6.96802339 L10.3954782,6.96802339 C11.083749,6.96802339 11.7001167,7.29615694 12.0792038,7.80084302 C12.4584421,7.2964503 13.0746408,6.96814236 13.7622688,6.96814236 L17.3370465,6.96814236 C18.4743189,6.96814236 19.4138234,7.86231921 19.4138234,8.96944033 L19.4138234,9.72263282 C19.6556618,9.75392619 19.8876301,9.78722923 20.108693,9.82253048 L20.1086986,4.28775749 C20.1086986,4.21370978 20.1247951,4.1434216 20.1536799,4.0802011 C20.120955,4.01369616 20.1025742,3.93886133 20.1025742,3.85973342 C20.1025742,3.39459052 19.688231,3 19.173913,3 L4.81996524,3 C5.09610787,3 5.3199655,2.77614237 5.3199655,2.5 C5.3199655,2.22385763 5.09610787,2 4.8199655,2 C4.783216,2 4.74668922,2.00100484 4.71041414,2.00298795 Z M5.74392357,9.67162417 C7.54418664,9.49841465 9.52157877,9.39886987 11.4722551,9.37073486 L11.4722551,8.96932136 C11.4722551,8.42632159 10.9904617,7.96802339 10.3954782,7.96802339 L6.82070051,7.96802339 C6.22582484,7.96802339 5.74392357,8.42679995 5.74392357,8.96932136 L5.74392357,9.67162417 Z M18.4138234,9.60991543 L18.4138234,8.96944033 C18.4138234,8.42596641 17.9327913,7.96814236 17.3370465,7.96814236 L13.7622688,7.96814236 C13.168018,7.96814236 12.6854919,8.42751378 12.6854919,8.96944033 L12.6854919,9.36242775 C14.7588422,9.36404516 16.7524341,9.44747191 18.4138234,9.60991543 Z M22.1769644,17.3030157 L1.98140756,17.3030157 L1.98140756,21.107645 L4.12621199,21.107645 L4.12621199,19.3330953 C4.12621199,19.0569529 4.35006961,18.8330953 4.62621199,18.8330953 L19.532785,18.8330953 C19.8089273,18.8330953 20.032785,19.0569529 20.032785,19.3330953 L20.032785,21.107645 L22.1769644,21.107645 L22.1769644,17.3030157 Z" id="path-1"></path>
    </defs>
    <g id="Symbols" stroke="none" stroke-width="1" fill="none" fill-rule="evenodd">
        <g id="0:-Icons-/-Category-/-Para-a-sua-casa">
            <path d="M0,0 L24,0 L24,24 L0,24 L0,0 Z M0,0 L24,0 L24,24 L0,24 L0,0 Z M0,0 L24,0 L24,24 L0,24 L0,0 Z M0,0 L24,0 L24,24 L0,24 L0,0 Z" id="Container"></path>
            <mask id="mask-2" fill="white">
                <use xlink:href="#path-1"></use>
            </mask>
            <use id="Mask" fill="#4A4A4A" fill-rule="nonzero" xlink:href="#path-1"></use>
            <g id="0:-Fundamentals-/-Color-/-Primary-/-Black" mask="url(#mask-2)" fill="#4A4A4A">
                <rect id="Mixin/Fill/Black" x="0" y="0" width="24" height="24"></rect>
            </g>
        </g>
    </g>
</svg>