<?xml version="1.0" encoding="UTF-8"?>
<svg width="24px" height="24px" viewBox="0 0 24 24" version="1.1" xmlns="http://www.w3.org/2000/svg" xmlns:xlink="http://www.w3.org/1999/xlink">
    <!-- Generator: Sketch 48.2 (47327) - http://www.bohemiancoding.com/sketch -->
    <title>xxxhdpi0: Icons / Category / Veículos e acessórios</title>
    <desc>Created with Sketch.</desc>
    <defs>
        <path d="M8.15217391,14.0652174 L8.15217391,13.0652174 L15.8478261,13.0652174 L15.8478261,14.0652174 L8.15217391,14.0652174 Z M8.65217391,15.9782609 L8.15217391,15.9782609 L8.15217391,14.9782609 L15.8478261,14.9782609 L15.8478261,15.9782609 L15.3478261,15.9782609 L8.65217391,15.9782609 Z M19.3595238,15.8928571 C18.3601514,15.8928571 17.55,15.0827057 17.55,14.0833333 C17.55,13.0839609 18.3601514,12.2738095 19.3595238,12.2738095 C20.3588962,12.2738095 21.1690476,13.0839609 21.1690476,14.0833333 C21.1690476,15.0827057 20.3588962,15.8928571 19.3595238,15.8928571 Z M19.3595238,14.8928571 C19.8066114,14.8928571 20.1690476,14.530421 20.1690476,14.0833333 C20.1690476,13.6362457 19.8066114,13.2738095 19.3595238,13.2738095 C18.9124361,13.2738095 18.55,13.6362457 18.55,14.0833333 C18.55,14.530421 18.9124361,14.8928571 19.3595238,14.8928571 Z M4.69285712,15.8928571 C3.69348471,15.8928571 2.88333331,15.0827057 2.88333331,14.0833333 C2.88333331,13.0839609 3.69348471,12.2738095 4.69285712,12.2738095 C5.69222952,12.2738095 6.50238093,13.0839609 6.50238093,14.0833333 C6.50238093,15.0827057 5.69222952,15.8928571 4.69285712,15.8928571 Z M4.69285712,14.8928571 C5.13994477,14.8928571 5.50238093,14.530421 5.50238093,14.0833333 C5.50238093,13.6362457 5.13994477,13.2738095 4.69285712,13.2738095 C4.24576946,13.2738095 3.88333331,13.6362457 3.88333331,14.0833333 C3.88333331,14.530421 4.24576946,14.8928571 4.69285712,14.8928571 Z M12.028927,3.55513921 L12.032223,3.50114359 C16.6779527,3.78472985 18.855437,4.11868788 19.2594374,4.78972443 C19.5155745,5.215163 20.02527,6.26235049 20.8016186,7.95477169 C22.0598781,7.56034317 22.984608,7.86800259 23.374211,8.93575493 C23.7535574,9.97539808 23.2862441,10.7704184 22.155963,11.2336718 C22.6505851,12.2788211 22.9318228,13.0179603 23.0043184,13.4824134 C23.086654,14.0099081 23.0419676,15.1232571 22.8750122,16.8955598 C22.747107,17.91531 21.5662846,18.4781242 19.4240128,18.7692554 C17.4721119,19.0345155 14.9984084,19.1666148 11.9999913,19.1666667 C9.00159157,19.1666148 6.52788807,19.0345155 4.57598716,18.7692554 C2.43371538,18.4781242 1.252893,17.91531 1.12329811,16.8801599 C0.958032386,15.1232571 0.91334595,14.0099081 0.995681611,13.4824134 C1.06817724,13.0179603 1.34941488,12.2788211 1.84403698,11.2336718 C0.71375589,10.7704184 0.24644258,9.97539808 0.625789004,8.93575493 C1.01539195,7.86800259 1.94012189,7.56034317 3.19838141,7.95477169 C3.97473002,6.26235049 4.48442551,5.215163 4.74056262,4.78972443 C5.14299517,4.1212921 7.3050259,3.78733179 11.9747728,3.50418852 L12.028927,3.55513921 Z M5.59727813,5.30551366 C5.34842173,5.71885912 4.78236575,6.8905024 3.91562699,8.79082138 L3.71459692,9.23157847 L3.26770577,9.04458061 C2.2426199,8.615642 1.76879295,8.7205776 1.56520623,9.27853078 C1.36394875,9.83010039 1.63872144,10.1786178 2.67139727,10.4578045 L3.2575699,10.6162779 L2.98957213,11.1611534 C2.38443014,12.3914885 2.04675074,13.2328065 1.98371802,13.6366342 C1.9191677,14.0501847 1.96208175,15.1193753 2.11721331,16.7711069 C2.16450908,17.148182 2.99849796,17.5456853 4.71064772,17.7783636 C6.61240971,18.0368099 9.0431612,18.1666155 11.9999913,18.1666667 C14.9568388,18.1666155 17.3875903,18.0368099 19.2893523,17.7783636 C21.001502,17.5456853 21.8354909,17.148182 21.881097,16.7865068 C22.0379182,15.1193753 22.0808323,14.0501847 22.016282,13.6366342 C21.9532493,13.2328065 21.6155699,12.3914885 21.0104279,11.1611534 L20.7424301,10.6162779 L21.3286027,10.4578045 C22.3612786,10.1786178 22.6360513,9.83010039 22.4347938,9.27853078 C22.231207,8.7205776 21.7573801,8.615642 20.7322942,9.04458061 L20.2854031,9.23157847 L20.084373,8.79082138 C19.2176342,6.8905024 18.6515783,5.71885912 18.4027219,5.30551366 C18.2815407,5.10423415 15.9167187,4.74112659 11.9982621,4.50093533 C8.08168004,4.741337 5.71840985,5.10431633 5.59727813,5.30551366 Z M2.09622214,20.1516802 L4.66853133,20.1516802 L4.66853133,18.3478261 L5.66853133,18.3478261 L5.66853133,20.1516802 C5.66853133,20.703965 5.22081608,21.1516802 4.66853133,21.1516802 L2.09622214,21.1516802 C1.55095986,21.1516802 1.1062071,20.7148686 1.09638442,20.1696948 L1,14.8202116 L2.01396677,15.5863805 L2.09622214,20.1516802 Z M2.09622214,20.1516802 L4.66853133,20.1516802 L4.66853133,18.3478261 L5.66853133,18.3478261 L5.66853133,20.1516802 C5.66853133,20.703965 5.22081608,21.1516802 4.66853133,21.1516802 L2.09622214,21.1516802 C1.55095986,21.1516802 1.1062071,20.7148686 1.09638442,20.1696948 L1,14.8202116 L2.01396677,15.5863805 L2.09622214,20.1516802 Z M21.8823087,20.1514684 L19.3099995,20.1514684 L19.3099995,18.3476142 L18.3099995,18.3476142 L18.3099995,20.1514684 C18.3099995,20.7037531 18.7577147,21.1514684 19.3099995,21.1514684 L21.8823087,21.1514684 C22.4275709,21.1514684 22.8723237,20.7146568 22.8821464,20.169483 L22.9785308,14.8199997 L21.964564,15.5861687 L21.8823087,20.1514684 Z M21.8823087,20.1514684 L19.3099995,20.1514684 L19.3099995,18.3476142 L18.3099995,18.3476142 L18.3099995,20.1514684 C18.3099995,20.7037531 18.7577147,21.1514684 19.3099995,21.1514684 L21.8823087,21.1514684 C22.4275709,21.1514684 22.8723237,20.7146568 22.8821464,20.169483 L22.9785308,14.8199997 L21.964564,15.5861687 L21.8823087,20.1514684 Z" id="path-1"></path>
    </defs>
    <g id="Symbols" stroke="none" stroke-width="1" fill="none" fill-rule="evenodd">
        <g id="0:-Icons-/-Category-/-Veículos-e-acessórios">
            <path d="M0,0 L24,0 L24,24 L0,24 L0,0 Z M0,0 L24,0 L24,24 L0,24 L0,0 Z M0,0 L24,0 L24,24 L0,24 L0,0 Z M0,0 L24,0 L24,24 L0,24 L0,0 Z" id="Container"></path>
            <mask id="mask-2" fill="white">
                <use xlink:href="#path-1"></use>
            </mask>
            <use id="Mask" fill="#4A4A4A" fill-rule="nonzero" xlink:href="#path-1"></use>
            <g id="0:-Fundamentals-/-Color-/-Primary-/-Black" mask="url(#mask-2)" fill="#4A4A4A">
                <rect id="Mixin/Fill/Black" x="0" y="0" width="24" height="24"></rect>
            </g>
        </g>
    </g>
</svg>