<?xml version="1.0" encoding="UTF-8"?>
<svg width="24px" height="24px" viewBox="0 0 24 24" version="1.1" xmlns="http://www.w3.org/2000/svg" xmlns:xlink="http://www.w3.org/1999/xlink">
    <!-- Generator: Sketch 48.2 (47327) - http://www.bohemiancoding.com/sketch -->
    <title>xxxhdpi0: Icons / Category / Eletrônicos e celulares</title>
    <desc>Created with Sketch.</desc>
    <defs>
        <path d="M18.6111721,20.908128 L18.7409378,4.29116638 L18.774393,3.29211349 C18.806602,2.32279691 18.2287843,1.95148219 17.2399029,1.95148219 L6.46779956,1.95148219 C5.71612805,1.95148219 5.09654548,2.57867656 5.09654548,3.34572531 L5.09654548,20.9120077 C5.09654548,21.6782361 5.71778866,22.3062508 6.46779956,22.3062508 L17.2399029,22.3062508 C17.9849999,22.3062508 18.6052082,21.6767002 18.6111721,20.908128 Z M19.6111418,20.9159073 C19.600955,22.2286951 18.5393899,23.3062508 17.2399029,23.3062508 L6.46779956,23.3062508 C5.16306264,23.3062508 4.09654548,22.2281087 4.09654548,20.9120077 L4.09654548,3.34572531 C4.09654548,2.02910662 5.16109158,0.951482185 6.46779956,0.951482185 L17.2399029,0.951482185 C18.7216583,0.951482185 19.8290738,1.66312479 19.7738371,3.32545264 L19.7406425,4.3118 L19.6111418,20.9159073 Z M10.675209,20.6304348 C10.3990667,20.6304348 10.175209,20.4065772 10.175209,20.1304348 C10.175209,19.8542924 10.3990667,19.6304348 10.675209,19.6304348 L13.0322456,19.6304348 C13.308388,19.6304348 13.5322456,19.8542924 13.5322456,20.1304348 C13.5322456,20.4065772 13.308388,20.6304348 13.0322456,20.6304348 L10.675209,20.6304348 Z M4.90313373,18.7173913 C4.62699135,18.7173913 4.40313373,18.4935337 4.40313373,18.2173913 C4.40313373,17.9412489 4.62699135,17.7173913 4.90313373,17.7173913 L18.6921696,17.7173913 C18.968312,17.7173913 19.1921696,17.9412489 19.1921696,18.2173913 C19.1921696,18.4935337 18.968312,18.7173913 18.6921696,18.7173913 L4.90313373,18.7173913 Z M5.04137108,4.36956522 C4.7652287,4.36956522 4.54137108,4.14570759 4.54137108,3.86956522 C4.54137108,3.59342284 4.7652287,3.36956522 5.04137108,3.36956522 L18.8304069,3.36956522 C19.1065493,3.36956522 19.3304069,3.59342284 19.3304069,3.86956522 C19.3304069,4.14570759 19.1065493,4.36956522 18.8304069,4.36956522 L5.04137108,4.36956522 Z" id="path-1"></path>
    </defs>
    <g id="Symbols" stroke="none" stroke-width="1" fill="none" fill-rule="evenodd">
        <g id="0:-Icons-/-Category-/-Eletrônicos-e-celulares">
            <path d="M0,0 L24,0 L24,24 L0,24 L0,0 Z M0,0 L24,0 L24,24 L0,24 L0,0 Z M0,0 L24,0 L24,24 L0,24 L0,0 Z M0,0 L24,0 L24,24 L0,24 L0,0 Z" id="Container"></path>
            <mask id="mask-2" fill="white">
                <use xlink:href="#path-1"></use>
            </mask>
            <use id="Mask" fill="#4A4A4A" fill-rule="nonzero" xlink:href="#path-1"></use>
            <g id="0:-Fundamentals-/-Color-/-Primary-/-Black" mask="url(#mask-2)" fill="#4A4A4A">
                <rect id="Mixin/Fill/Black" x="0" y="0" width="24" height="24"></rect>
            </g>
        </g>
    </g>
</svg>