<svg xmlns="http://www.w3.org/2000/svg" width="24" height="24" viewBox="0 0 24 24">
  <g fill="none" fill-rule="evenodd">
    <path d="M0,0 L24,0 L24,24 L0,24 L0,0 Z M0,0 L24,0 L24,24 L0,24 L0,0 Z M0,0 L24,0 L24,24 L0,24 L0,0 Z M0,0 L24,0 L24,24 L0,24 L0,0 Z"/>
    <path fill="#4A4A4A" fill-rule="nonzero" d="M14.526376,2.48312308 C15.8868358,1.12266329 17.8641046,0.642429765 19.6745598,1.18248031 C20.0374416,1.29072629 20.1529576,1.74740212 19.8851887,2.01517104 L17.727534,4.1728257 L17.9848454,5.13335471 L18.2415252,6.0933973 L20.161783,6.60780578 L20.8643172,5.90477014 L22.3195525,4.44953484 C22.5873214,4.18176593 23.0439972,4.29728196 23.1522432,4.66016374 C23.692235,6.47042192 23.2121982,8.44769768 21.8522475,9.80834751 C20.6239427,11.0366524 18.8913731,11.5498201 17.2257832,11.2357419 L6.1838397,22.2770494 C5.0483733,23.4132973 3.19289729,23.4132973 2.05755249,22.277171 C0.922720693,21.1423392 0.923447657,19.2844632 2.05756267,18.1503482 L13.0995306,7.10901626 C12.7850388,5.44431802 13.298428,3.71107107 14.526376,2.48312308 Z M18.5085202,1.97762595 C17.3139009,1.88621266 16.1139096,2.30980303 15.2334828,3.19022986 C14.1865522,4.2371605 13.7833974,5.73817087 14.1314533,7.14999513 C14.1733547,7.31996033 14.1233169,7.49946174 13.9995314,7.62324004 L2.76465927,18.8574652 C2.02095491,19.6011695 2.02047569,20.8258807 2.76478087,21.5701859 C3.50966741,22.3155851 4.73160318,22.3155851 5.4766215,21.5700541 L16.7115038,10.3358188 C16.8352198,10.21211 17.014598,10.1620642 17.1844885,10.2038582 C18.5975711,10.5514836 20.0978584,10.1485231 21.1450499,9.1013316 C22.0250989,8.22083009 22.4485305,7.02077276 22.3571008,5.8262001 L21.5715501,6.61175076 L20.6650207,7.51892723 C20.5387158,7.64532228 20.3545606,7.69470763 20.1819605,7.64847065 L17.7037252,6.9845883 C17.5310717,6.93833699 17.3962394,6.80343896 17.3500722,6.63076293 L17.0188411,5.39188065 L16.6868999,4.152763 C16.6406794,3.98022452 16.6900123,3.79613387 16.8163172,3.66982896 L18.5085202,1.97762595 Z M14.9364491,16.42145 L13.1346819,14.6196828 C12.9394198,14.4244207 12.9394198,14.1078382 13.1346819,13.912576 C13.329944,13.7173139 13.6465265,13.7173139 13.8417887,13.912576 L15.6435559,15.7143432 L16.9998231,14.358076 C17.1950852,14.1628139 17.5116677,14.1628139 17.7069299,14.358076 L21.4993416,18.1504878 C22.6325573,19.2837035 22.6337695,21.1428726 21.4993416,22.2773004 C20.3639233,23.4127188 18.5087287,23.4127188 17.372529,22.2773004 L13.5801172,18.4848887 C13.3848551,18.2896265 13.3848551,17.973044 13.5801172,17.7777819 L14.9364491,16.42145 Z M15.8849824,16.8871302 L14.6407774,18.1313353 L18.0795141,21.5700721 C18.8250831,22.3151283 20.0473003,22.3151283 20.7922348,21.5701937 C21.5359318,20.8264967 21.5351325,19.6004922 20.7922348,18.8575946 L17.3533765,15.4187362 L16.1092361,16.6628766 C16.0857769,16.7098817 16.0544513,16.7539613 16.0152593,16.7931534 C15.9760672,16.8323454 15.9319876,16.863671 15.8849824,16.8871302 Z M4.9252122,6.41047192 C4.72993657,6.21522326 4.72991471,5.89864077 4.92516338,5.70336514 C5.12041204,5.50808951 5.43699453,5.50806765 5.63227015,5.70331632 L10.3182702,10.3886693 C10.5135458,10.5839179 10.5135676,10.9005004 10.318319,11.095776 C10.1230703,11.2910517 9.80648783,11.2910735 9.6112122,11.0958249 L4.9252122,6.41047192 Z M3.68689786,6.18217772 L5.64450788,4.22456769 L3.0367186,2.63462935 L2.09744352,3.57390444 L3.68689786,6.18217772 Z M1.11232896,3.14480543 L2.6076819,1.64945249 C2.77085164,1.48628275 3.02449261,1.45597093 3.22151787,1.57609491 L6.70787082,3.70168315 C6.98435815,3.87025421 7.03011919,4.25316994 6.80114163,4.48214751 L3.94437692,7.33891221 C3.71536763,7.5679215 3.33239008,7.52211078 3.16385588,7.24554842 L1.03891471,3.75854842 C0.918854788,3.56153171 0.949187965,3.30794643 1.11232896,3.14480543 Z"/>
  </g>
</svg>
