<?xml version="1.0" encoding="UTF-8"?>
<svg width="24px" height="24px" viewBox="0 0 24 24" version="1.1" xmlns="http://www.w3.org/2000/svg" xmlns:xlink="http://www.w3.org/1999/xlink">
    <!-- Generator: Sketch 48.2 (47327) - http://www.bohemiancoding.com/sketch -->
    <title>xxxhdpi0: Icons / Category / Moda e beleza</title>
    <desc>Created with Sketch.</desc>
    <defs>
        <path d="M15.3642589,6.10788887 L15.369261,6.09632908 C15.368491,6.09818225 15.3677456,6.09997639 15.3670231,6.10171527 L15.3642589,6.10788887 Z M15.1944552,6.53595681 C15.1686663,6.60315961 15.1321559,6.69911425 15.0696818,6.86316476 C14.337146,8.77956853 13.6251076,9.5272108 11.823341,9.51106811 C10.202458,9.49624393 9.36556123,8.60308356 8.50265442,6.67783754 C8.47910525,6.62529659 8.43380535,6.52278109 8.38733413,6.41736161 C6.37742279,6.87284351 4.98128681,7.5159728 4.26798242,8.51706414 L2.0282581,19.6982284 L4.03514661,20.3608222 L5.91065457,12.3727182 C6.04640591,11.7945304 6.89741807,11.8930938 6.89741807,12.4870042 L6.89741807,22.0505215 L16.7176105,22.0505215 L16.7176105,12.4870042 C16.7176105,11.8931141 17.5685804,11.7945263 17.7043663,12.3726852 L19.5804557,20.3608339 L21.5873794,19.6982284 L19.3474543,8.51606166 C18.5868366,7.42961177 17.3982857,6.89491595 15.2397887,6.4185837 C15.22537,6.45563724 15.2103487,6.49454041 15.1944552,6.53595681 Z M12.1681004,5.30227885 L14.3662831,5.90759061 C14.3757174,5.88395438 14.385063,5.8607085 14.3944051,5.8376437 C14.4201528,5.77437205 14.4201528,5.77437205 14.4465679,5.7107937 L14.4789721,5.63803404 C14.5748573,5.42388437 14.8067548,5.30521542 15.036533,5.35271343 C17.7607016,5.91583314 19.2330504,6.53631346 20.2340924,8.04138001 L20.3080302,8.2200774 L22.6548715,19.9359913 C22.7045169,20.1838316 22.5613879,20.4297433 22.3213677,20.5089883 L19.375333,21.4816504 C19.096603,21.5736758 18.7989319,21.4069313 18.7318201,21.1211777 L17.7176105,16.8028031 L17.7176105,22.5505215 C17.7176105,22.8266639 17.4937529,23.0505215 17.2176105,23.0505215 L6.39741807,23.0505215 C6.12127569,23.0505215 5.89741807,22.8266639 5.89741807,22.5505215 L5.89741807,16.8040821 L4.88382519,21.1211447 C4.81672964,21.4069159 4.51904739,21.5736801 4.24030457,21.4816504 L1.29426984,20.5089883 C1.05424963,20.4297433 0.91112064,20.1838316 0.960766088,19.9359913 L3.30760732,8.2200774 L3.38152453,8.04141093 C4.31376447,6.63956255 6.05846936,5.87426856 8.57900989,5.35273302 C8.80922719,5.3050978 9.04153499,5.42427834 9.13712413,5.63906157 C9.14979263,5.66760699 9.18091809,5.73828868 9.21839989,5.82340339 L11.1651682,5.28745143 C11.2212174,4.76567779 11.3633111,4.46056059 11.6742394,4.17027215 C11.7873868,4.06463562 12.2733725,3.68883841 12.3244041,3.64716634 C12.4669201,3.53067236 12.5555296,3.31461444 12.5555296,3.05747012 C12.5555296,2.57347737 12.1481935,2.17601664 11.6397523,2.17601664 C11.1313111,2.17601664 10.723975,2.57347737 10.723975,3.05747012 C10.723975,3.3336125 10.5001173,3.55747012 10.223975,3.55747012 C9.94783259,3.55747012 9.72397497,3.3336125 9.72397497,3.05747012 C9.72397497,2.01562522 10.5844446,1.17601664 11.6397523,1.17601664 C12.69506,1.17601664 13.5555296,2.01562522 13.5555296,3.05747012 C13.5555296,3.59755717 13.348949,4.10126547 12.9570947,4.42157091 C12.8729296,4.49029979 12.4297329,4.83300968 12.3566691,4.90122341 C12.2519222,4.99901702 12.1978985,5.09025828 12.1681004,5.30227885 Z M9.63936864,6.74471318 C10.2639242,7.99747198 10.8406206,8.50203858 11.8323932,8.51110908 C13.0132716,8.521689 13.4660587,8.14115088 14.0015614,6.84437886 L11.6397365,6.19400507 L9.63936864,6.74471318 Z" id="path-1"></path>
    </defs>
    <g id="Symbols" stroke="none" stroke-width="1" fill="none" fill-rule="evenodd">
        <g id="0:-Icons-/-Category-/-Moda-e-beleza">
            <path d="M0,0 L24,0 L24,24 L0,24 L0,0 Z M0,0 L24,0 L24,24 L0,24 L0,0 Z M0,0 L24,0 L24,24 L0,24 L0,0 Z M0,0 L24,0 L24,24 L0,24 L0,0 Z" id="Container"></path>
            <mask id="mask-2" fill="white">
                <use xlink:href="#path-1"></use>
            </mask>
            <use id="Mask" fill="#4A4A4A" fill-rule="nonzero" xlink:href="#path-1"></use>
            <g id="0:-Fundamentals-/-Color-/-Primary-/-Black" mask="url(#mask-2)" fill="#4A4A4A">
                <rect id="Mixin/Fill/Black" x="0" y="0" width="24" height="24"></rect>
            </g>
        </g>
    </g>
</svg>