<?xml version="1.0" encoding="UTF-8"?>
<svg width="24px" height="20px" viewBox="0 0 24 20" version="1.1" xmlns="http://www.w3.org/2000/svg" xmlns:xlink="http://www.w3.org/1999/xlink">
    <!-- Generator: Sketch 49 (51002) - http://www.bohemiancoding.com/sketch -->
    <title>0: Icons / Category / Agro e industria</title>
    <desc>Created with Sketch.</desc>
    <defs>
        <path d="M22,15.3773145 C22.9144625,16.110375 23.5,17.2368077 23.5,18.5 C23.5,20.709139 21.709139,22.5 19.5,22.5 C17.290861,22.5 15.5,20.709139 15.5,18.5 C15.5,18.3306698 15.5105217,18.1637971 15.5309469,18 L12.3109738,18 C11.6449096,20.5878408 9.29575914,22.5 6.5,22.5 C3.1862915,22.5 0.5,19.8137085 0.5,16.5 C0.5,14.7415523 1.25645557,13.1597844 2.46170367,12.0623591 C2.46413224,11.8619309 2.46934461,11.5869176 2.47998093,11.0474542 C2.48567393,10.7587114 2.48928298,10.5617562 2.49235851,10.362183 C2.49738219,10.036193 2.5,9.75534831 2.5,9.5 C2.5,8.79951113 3.25081346,8.24411322 4,8.06289066 L4,5.13636364 L4.02182421,4.99025437 C4.41208882,3.71302476 5.06569485,3 6,3 L13,3 L13,4 L6,4 C5.61140508,4 5.27272793,4.35838184 5,5.21259457 L5,8 L8.5,8 C9.20798417,8 9.47467619,8.34288975 9.72434165,9.09188612 C9.84967619,9.46788975 9.87465083,9.5 10,9.5 C13.1979309,9.5 13.1979309,9.5 16.4895391,9.50010944 C19.071199,9.44608475 20.5,10.058428 20.5,11.5 C20.5,11.7358156 20.4942603,12.3243869 20.4943793,12.3972702 C20.4944413,12.4352313 20.4947535,12.4694193 20.4952671,12.5 C21.4860278,12.5 21.9615745,13.03499 22.0100477,13.859546 C22.0180169,13.9951068 22.0160464,14.1077179 22.0068588,14.3044887 C22.0012193,14.4252714 22,14.4574314 22,14.5 L22,15.3773145 Z M21,14.7907586 C21,14.7024665 21,14.6082662 21,14.5 C21,14.435155 21.0014323,14.3973749 21.0079471,14.2578478 C21.0155672,14.0946467 21.0170754,14.0084591 21.0117712,13.9182317 C20.9923534,13.5879243 20.9141985,13.5 20.5,13.5 C19.8475279,13.5 19.6830477,13.4610397 19.5456371,12.9763395 C19.5051387,12.8334859 19.4948398,12.680148 19.4943807,12.3989029 C19.4942497,12.3186826 19.5,11.7290196 19.5,11.5 C19.5,10.8439157 18.5954677,10.456259 16.5,10.5 L10,10.5 C9.29201583,10.5 9.02532381,10.1571103 8.77565835,9.40811388 C8.65032381,9.03211025 8.62534917,9 8.5,9 L5,9 L4.5,9 C4.10837018,9 3.5,9.34522405 3.5,9.5 C3.5,9.76111697 3.49733652,10.0468616 3.49223979,10.3775917 C3.48913722,10.5789193 3.48550564,10.7771044 3.47978662,11.0671669 C3.47800027,11.1577689 3.47636831,11.2408462 3.47487802,11.3173068 C4.36305177,10.7977626 5.39675279,10.5 6.5,10.5 C9.8137085,10.5 12.5,13.1862915 12.5,16.5 C12.5,16.6683766 12.4930643,16.8351333 12.4794631,17 L15.7907585,17 C16.3841459,15.5340848 17.8213112,14.5 19.5,14.5 C20.0304502,14.5 20.5367843,14.6032536 21,14.7907585 Z M6.5,21.5 C9.26142375,21.5 11.5,19.2614237 11.5,16.5 C11.5,13.7385763 9.26142375,11.5 6.5,11.5 C3.73857625,11.5 1.5,13.7385763 1.5,16.5 C1.5,19.2614237 3.73857625,21.5 6.5,21.5 Z M19.5,21.5 C21.1568542,21.5 22.5,20.1568542 22.5,18.5 C22.5,16.8431458 21.1568542,15.5 19.5,15.5 C17.8431458,15.5 16.5,16.8431458 16.5,18.5 C16.5,20.1568542 17.8431458,21.5 19.5,21.5 Z M6.5,18.5 C5.3954305,18.5 4.5,17.6045695 4.5,16.5 C4.5,15.3954305 5.3954305,14.5 6.5,14.5 C7.6045695,14.5 8.5,15.3954305 8.5,16.5 C8.5,17.6045695 7.6045695,18.5 6.5,18.5 Z M6.5,17.5 C7.05228475,17.5 7.5,17.0522847 7.5,16.5 C7.5,15.9477153 7.05228475,15.5 6.5,15.5 C5.94771525,15.5 5.5,15.9477153 5.5,16.5 C5.5,17.0522847 5.94771525,17.5 6.5,17.5 Z M17.5,10 L16.5,10 L16.5,7 C16.5,6.60947571 16.3905243,6.5 16,6.5 L16,5.5 C16.942809,5.5 17.5,6.05719096 17.5,7 L17.5,10 Z M13.4778895,9.85295708 L12.5221105,10.1470429 L10.5221105,3.64704292 L11.4778895,3.35295708 L13.4778895,9.85295708 Z" id="path-1"></path>
    </defs>
    <g id="Page-5" stroke="none" stroke-width="1" fill="none" fill-rule="evenodd">
        <g id="0:-Icons-/-Category-/-Agro-e-industria" transform="translate(0.000000, -3.000000)">
            <path d="M0,0 L24,0 L24,24 L0,24 L0,0 Z M0,0 L24,0 L24,24 L0,24 L0,0 Z M0,0 L24,0 L24,24 L0,24 L0,0 Z M0,0 L24,0 L24,24 L0,24 L0,0 Z" id="Container"></path>
            <mask id="mask-2" fill="white">
                <use xlink:href="#path-1"></use>
            </mask>
            <use id="Mask" fill="#4A4A4A" fill-rule="nonzero" xlink:href="#path-1"></use>
            <g id="0:-Fundamentals-/-Color-/-Primary-/-Black" mask="url(#mask-2)" fill="#4A4A4A" fill-rule="evenodd">
                <rect id="Mixin/Fill/Black" x="0" y="0" width="24" height="24"></rect>
            </g>
        </g>
    </g>
</svg>