<?xml version="1.0" encoding="UTF-8"?>
<svg width="24px" height="24px" viewBox="0 0 24 24" version="1.1" xmlns="http://www.w3.org/2000/svg" xmlns:xlink="http://www.w3.org/1999/xlink">
    <!-- Generator: Sketch 48.2 (47327) - http://www.bohemiancoding.com/sketch -->
    <title>xxxhdpi0: Icons / Category / Música e hobbies</title>
    <desc>Created with Sketch.</desc>
    <defs>
        <path d="M18.3358379,3.25770775 L18.4932425,3.06013726 L18.1204398,2.68597938 C17.9255322,2.49036332 17.9261065,2.17378135 18.1217226,1.97887376 C18.3173386,1.78396618 18.6339206,1.78454051 18.8288282,1.98015657 L19.1204692,2.27285765 L19.2778738,2.07528716 L18.9895587,1.78592401 C18.7946511,1.59030795 18.7952254,1.27372598 18.9908415,1.0788184 C19.1864576,0.883910809 19.5030395,0.884485141 19.6979471,1.0801012 L19.9472311,1.3302913 C20.1286254,1.25266084 20.3485465,1.28624526 20.498759,1.43704303 L22.7985575,3.74580229 C22.9485317,3.89636084 22.9814801,4.11612783 22.9033951,4.29720077 L23.1544141,4.54913223 C23.3493217,4.7447483 23.3487474,5.06133026 23.1531313,5.25623785 C22.9575153,5.45114544 22.6409333,5.45057111 22.4460257,5.25495504 L22.1600883,4.96797825 L21.9632554,5.12597716 L22.2577983,5.42159071 C22.4527059,5.61720677 22.4521315,5.93378874 22.2565155,6.12869633 C22.0608994,6.32360392 21.7443174,6.32302958 21.5494099,6.12741352 L21.1789149,5.7555718 L20.9820819,5.91357071 L21.3610027,6.29386882 C21.5559103,6.48948488 21.555336,6.80606685 21.3597199,7.00097444 C21.1641038,7.19588202 20.8475219,7.19530769 20.6526143,6.99969163 L20.2242851,6.56980547 C20.2222938,6.56780702 20.220323,6.56579594 20.2183726,6.5637725 L16.3839969,10.4120859 C16.1890893,10.607702 15.8725073,10.6082763 15.6768913,10.4133687 C15.4812752,10.2184611 15.4807009,9.90187916 15.6756085,9.7062631 L19.6951856,5.67207511 C19.712574,5.65296851 19.7316708,5.63496609 19.7524523,5.61828464 L21.6972551,4.05718025 L20.1860967,2.5401338 L18.6329613,4.48959145 C18.6146412,4.51258642 18.5947057,4.53353661 18.5734458,4.55240912 L14.5597937,8.5806506 C14.3648861,8.77626667 14.0483041,8.776841 13.8526881,8.58193341 C13.657072,8.38702582 13.6564977,8.07044386 13.8514053,7.87482779 L17.688094,4.024193 C17.6851939,4.02141718 17.6823191,4.01859969 17.6794703,4.01574054 L17.2511411,3.58585437 C17.0562335,3.39023831 17.0568079,3.07365634 17.2524239,2.87874876 C17.44804,2.68384117 17.764622,2.6844155 17.9595295,2.88003156 L18.3358379,3.25770775 Z M8.61530301,18.5602947 C8.81021059,18.7559108 8.80963626,19.0724928 8.6140202,19.2674003 C8.41840414,19.4623079 8.10182217,19.4617336 7.90691458,19.2661175 L4.84391138,16.1919805 C4.64900379,15.9963645 4.64957812,15.6797825 4.84519418,15.4848749 C5.04081024,15.2899673 5.35739221,15.2905417 5.5522998,15.4861577 L8.61530301,18.5602947 Z M11.8997217,12.3705631 C11.3127547,11.7814626 10.3615145,11.7814626 9.77454758,12.3705631 C9.18658053,12.9606674 9.18658053,13.9184983 9.77468261,14.5087382 C10.3616191,15.0982592 11.3126502,15.0982592 11.8997217,14.5086026 C12.4876887,13.9184983 12.4876887,12.9606674 11.8997217,12.3705631 Z M12.6081101,11.6647403 C13.5848926,12.6450733 13.5848926,14.2340924 12.6082451,15.2142898 C11.6304321,16.1964086 10.0438372,16.1964086 9.06615915,15.2144254 C8.08937667,14.2340924 8.08937667,12.6450733 9.06615915,11.6647403 C10.0439418,10.6834035 11.6303275,10.6834035 12.6081101,11.6647403 Z M14.7783336,9.63029433 L14.7000083,9.55285275 L14.6429457,9.49441423 L14.9839605,9.12827556 L15.3381547,9.48118696 C15.194799,9.62506376 14.9876696,9.66411841 14.8099518,9.59879073 C14.7755455,9.58614327 14.7422417,9.56958345 14.7107251,9.54910573 C14.6921602,9.53704334 14.6742155,9.52362153 14.657031,9.50883915 C12.6668416,7.57624734 10.6525396,6.97196747 9.67821844,7.94983024 C9.55799023,8.07049546 9.44503957,8.34154034 9.2493481,8.96371061 C9.23444199,9.01113174 9.23444199,9.01113174 9.21939678,9.05898378 C8.93752531,9.95482681 8.77348044,10.3299702 8.42035734,10.6259782 C7.84795447,11.1063341 7.21837733,11.2598405 5.68267328,11.449849 C5.4690069,11.4762246 5.37089104,11.488479 5.25698187,11.5033023 C3.91338946,11.6781465 3.20867236,11.9021226 2.75804734,12.3822606 C1.1416227,14.1044378 2.01581416,17.0114561 4.53640481,19.6283719 C4.5728974,19.66995 4.58550677,19.6870554 4.59689042,19.7047159 C4.61725596,19.7363108 4.63369852,19.7696821 4.64622394,19.8041446 C4.71048402,19.9809499 4.67164147,20.1864722 4.53048001,20.3281468 L4.17508768,19.9764379 L4.53703434,19.6314819 L4.6076072,19.700968 L4.66466987,19.7594066 L4.32365501,20.1255452 L3.9694608,19.7726338 C4.11561008,19.6259533 4.32813004,19.5881973 4.50814291,19.6590171 C4.5388358,19.6710921 4.56858366,19.6863237 4.59689042,19.7047159 C4.61545624,19.716779 4.63340213,19.7302017 4.65058814,19.7449853 C7.28046767,22.2945929 10.1735513,23.1709768 11.8877824,21.5502921 C12.3665124,21.0977162 12.589947,20.3895828 12.7642477,19.0404118 C12.7790193,18.9260728 12.7912312,18.8275857 12.8175115,18.6131401 C13.0067443,17.0725667 13.1595405,16.4413383 13.6378979,15.8671655 C13.9332608,15.513048 14.3073004,15.3483716 15.2000939,15.0653175 C15.2475482,15.0502834 15.2475482,15.0502834 15.2945748,15.0353883 C15.9147364,14.8388395 16.1846218,14.7255393 16.3048251,14.6048991 C17.2804965,13.6261354 16.6773379,11.6019405 14.771428,9.62567439 C14.736043,9.58566271 14.7227053,9.5676917 14.7107251,9.54910573 C14.6903597,9.51751112 14.673917,9.48413945 14.6613915,9.44967633 C14.5971346,9.27287796 14.6359675,9.06735514 14.7771355,8.925674 L15.1325279,9.27738293 L14.7783336,9.63029433 Z M15.3547767,8.79208056 L15.4083625,8.84706361 L15.4700658,8.90778879 C15.4987737,8.93656694 15.5100782,8.94912535 15.5206356,8.96208936 C17.7326367,11.2713318 18.4872365,13.8320272 17.0131316,15.3108041 C16.7292086,15.5957592 16.3990114,15.7343788 15.596696,15.9886579 C15.5493481,16.0036547 15.5493481,16.0036547 15.5023118,16.0185563 C14.8236723,16.2337143 14.5244883,16.3654345 14.4060173,16.5074721 C14.103163,16.8709883 13.972939,17.4089671 13.8100519,18.7350565 C13.783715,18.9499819 13.7711621,19.0512191 13.7560056,19.168538 C13.5531374,20.7388346 13.2774064,21.6127115 12.5747722,22.276959 C10.3608059,24.3701082 6.9425354,23.344148 4.00713793,20.5126572 C3.99414851,20.5020101 3.98157009,20.4906099 3.9694608,20.4784566 L3.90102999,20.4084973 L3.82632038,20.3352223 C3.80396986,20.3117709 3.79525665,20.3018756 3.7870011,20.2917351 C0.966566923,17.3473339 -0.0551664087,13.9183177 2.02889696,11.6979071 C2.69107285,10.9923629 3.56263646,10.715359 5.12793803,10.5116634 C5.24484774,10.4964497 5.34573281,10.4838494 5.5598823,10.4574164 C6.88045875,10.2940251 7.4158542,10.1634825 7.77773837,9.8597923 C7.91963432,9.74084697 8.05115336,9.44008474 8.26550082,8.75884632 C8.28041364,8.71141529 8.28041364,8.71141529 8.29542117,8.66367159 C8.5483592,7.85949487 8.68623821,7.52863006 8.96983001,7.24400743 C10.4455451,5.7629282 12.9999018,6.52075411 15.3007074,8.74135207 C15.3093127,8.74841413 15.3273358,8.76532362 15.3547767,8.79208056 Z" id="path-1"></path>
    </defs>
    <g id="Symbols" stroke="none" stroke-width="1" fill="none" fill-rule="evenodd">
        <g id="0:-Icons-/-Category-/-Música-e-hobbies">
            <path d="M0,0 L24,0 L24,24 L0,24 L0,0 Z M0,0 L24,0 L24,24 L0,24 L0,0 Z M0,0 L24,0 L24,24 L0,24 L0,0 Z M0,0 L24,0 L24,24 L0,24 L0,0 Z" id="Container"></path>
            <mask id="mask-2" fill="white">
                <use xlink:href="#path-1"></use>
            </mask>
            <use id="Mask" fill="#4A4A4A" fill-rule="nonzero" xlink:href="#path-1"></use>
            <g id="0:-Fundamentals-/-Color-/-Primary-/-Black" mask="url(#mask-2)" fill="#4A4A4A">
                <rect id="Mixin/Fill/Black" x="0" y="0" width="24" height="24"></rect>
            </g>
        </g>
    </g>
</svg>